<?xml version="1.0" standalone="no"?>
<!DOCTYPE svg PUBLIC "-//W3C//DTD SVG 20010904//EN"
 "http://www.w3.org/TR/2001/REC-SVG-20010904/DTD/svg10.dtd">
<svg version="1.0" xmlns="http://www.w3.org/2000/svg"
 width="1277.000000pt" height="1262.000000pt" viewBox="0 0 1277.000000 1262.000000"
 preserveAspectRatio="xMidYMid meet">

<g transform="translate(0.000000,1262.000000) scale(0.100000,-0.100000)"
fill="#000000" stroke="none">
<path d="M2340 12570 c-8 -5 -26 -10 -39 -10 -13 0 -58 -17 -100 -37 -80 -39
-184 -132 -216 -195 -46 -87 -65 -129 -65 -142 0 -8 -4 -18 -10 -21 -5 -3 -10
-19 -10 -35 0 -16 -7 -58 -15 -95 -14 -59 -14 -70 0 -111 8 -24 15 -58 15 -74
0 -16 4 -39 9 -52 5 -13 14 -41 21 -63 39 -123 173 -344 307 -505 21 -26 107
-135 133 -169 106 -142 218 -293 235 -320 6 -9 28 -43 50 -76 41 -62 48 -74
89 -154 42 -84 55 -119 107 -311 23 -89 32 -115 39 -130 4 -9 11 -30 14 -48 4
-17 12 -34 17 -37 5 -4 9 -15 9 -26 0 -10 4 -27 10 -37 9 -17 55 -145 90 -253
10 -31 28 -81 40 -110 33 -81 36 -89 60 -154 38 -101 56 -140 137 -310 20 -42
70 -134 118 -220 71 -127 161 -251 232 -322 54 -54 83 -92 94 -123 16 -44 16
-45 -18 -107 -18 -35 -33 -70 -33 -78 0 -9 -4 -23 -9 -33 -10 -18 -31 -105
-51 -207 -17 -88 -52 -222 -71 -273 -5 -13 -9 -33 -9 -45 0 -13 -4 -27 -9 -32
-5 -6 -11 -28 -14 -50 -3 -22 -13 -71 -22 -110 -80 -345 -80 -975 0 -1335 9
-41 19 -91 21 -110 3 -19 9 -44 14 -55 5 -11 11 -31 14 -45 11 -55 40 -148 57
-182 5 -10 9 -24 9 -31 0 -7 11 -37 25 -65 14 -29 25 -56 25 -60 0 -12 87
-184 124 -245 60 -99 146 -214 208 -279 67 -68 167 -148 187 -148 6 0 19 -4
29 -9 62 -33 96 -41 176 -41 168 0 305 82 369 222 42 91 55 145 77 313 5 39
13 104 19 147 13 100 31 197 42 226 5 13 9 35 9 50 0 32 25 156 35 171 10 17
35 13 42 -6 3 -10 72 -153 154 -317 147 -294 188 -363 298 -500 31 -38 67 -83
81 -100 80 -101 378 -398 465 -465 17 -12 48 -39 70 -60 22 -20 52 -45 66 -56
14 -11 53 -40 85 -64 32 -25 124 -110 204 -189 127 -127 266 -242 292 -242 21
0 4 22 -40 51 -98 67 -327 315 -471 509 -34 47 -68 92 -74 100 -41 53 -67 89
-67 94 0 4 -20 35 -45 71 -25 36 -65 94 -90 130 -25 36 -45 67 -45 70 0 2 -36
61 -80 130 -44 69 -80 128 -80 131 0 3 -16 30 -35 60 -19 30 -35 57 -35 60 0
3 -8 18 -18 32 -17 25 -36 58 -140 252 -19 36 -49 90 -65 120 -40 73 -149 292
-177 355 -12 28 -35 82 -52 120 -17 39 -40 90 -50 115 -31 71 -49 113 -58 135
-4 11 -18 43 -30 70 -22 49 -34 85 -49 155 -13 59 -42 110 -62 110 -11 0 -19
-4 -19 -10 0 -5 -6 -18 -14 -27 -39 -47 -85 -106 -121 -153 -22 -29 -56 -72
-76 -97 -20 -24 -43 -57 -50 -71 -7 -15 -23 -43 -34 -62 -12 -19 -27 -51 -34
-70 -7 -19 -16 -44 -21 -55 -48 -131 -66 -205 -105 -445 -16 -104 -25 -174
-45 -360 -22 -212 -26 -238 -39 -254 -15 -18 -66 -22 -76 -6 -3 5 -13 10 -21
10 -28 0 -174 122 -174 145 0 3 -8 15 -19 26 -17 19 -67 114 -106 204 -10 22
-23 54 -30 70 -29 65 -75 190 -75 202 0 7 -4 21 -9 31 -11 18 -49 159 -63 232
-36 180 -67 486 -67 670 -1 233 40 583 88 755 6 22 16 58 22 80 6 22 15 49 19
60 4 11 13 36 20 55 11 31 49 132 70 185 5 11 11 29 13 40 3 11 14 45 25 75
11 30 24 73 30 95 6 22 16 60 22 85 22 80 25 192 6 233 -52 117 -44 107 -180
247 -71 73 -156 180 -156 195 0 2 -15 29 -34 58 -55 86 -123 213 -166 312 -12
28 -28 64 -35 80 -8 17 -20 50 -28 75 -8 25 -21 59 -27 75 -30 72 -32 80 -85
250 -21 66 -41 129 -45 140 -4 11 -20 61 -35 110 -15 50 -31 98 -36 107 -5 10
-9 23 -9 30 0 14 -46 143 -61 170 -5 10 -9 27 -9 37 0 11 -4 23 -10 26 -5 3
-10 13 -10 20 0 15 -27 77 -88 205 -30 64 -184 315 -202 330 -4 3 -36 48 -73
100 -62 90 -106 148 -198 265 -110 140 -199 263 -219 299 -95 179 -112 225
-113 313 0 56 5 78 28 125 25 51 35 60 89 87 34 17 73 33 87 36 38 9 226 -28
281 -56 10 -5 25 -9 33 -9 8 0 23 -4 33 -9 9 -4 33 -15 52 -23 19 -8 55 -25
78 -37 24 -11 48 -21 53 -21 8 0 186 -82 219 -100 20 -11 169 -90 197 -104 13
-6 23 -14 23 -18 0 -5 5 -8 11 -8 15 0 196 -122 239 -161 164 -148 226 -179
365 -178 50 0 110 -4 135 -11 25 -6 124 -15 220 -21 191 -10 303 -22 365 -37
46 -11 162 -50 187 -63 10 -5 25 -9 33 -9 8 0 23 -4 33 -9 9 -5 35 -17 57 -26
22 -9 51 -21 65 -27 14 -6 34 -14 45 -18 11 -4 54 -24 95 -44 41 -20 81 -36
88 -36 6 0 12 -4 12 -10 0 -5 7 -10 15 -10 9 0 32 -10 53 -23 20 -12 51 -29
67 -37 17 -8 53 -28 80 -45 28 -17 64 -37 80 -45 17 -8 44 -25 61 -37 17 -13
34 -23 38 -23 4 0 68 -40 143 -90 74 -49 138 -90 143 -90 5 0 10 -4 12 -8 2
-5 37 -33 78 -62 72 -51 208 -151 240 -177 102 -82 229 -188 285 -237 95 -82
455 -442 541 -540 38 -44 74 -84 79 -90 6 -6 30 -36 55 -66 25 -30 47 -57 51
-60 3 -3 46 -57 95 -120 145 -185 394 -545 394 -569 0 -5 3 -11 8 -13 8 -4 62
-85 62 -94 0 -3 8 -18 19 -32 10 -15 29 -47 43 -72 14 -25 35 -63 48 -85 48
-84 137 -263 164 -330 15 -38 32 -79 36 -90 5 -11 16 -42 25 -69 9 -27 25 -72
37 -100 11 -28 24 -60 28 -71 39 -97 123 -279 328 -705 74 -156 119 -251 147
-315 10 -22 33 -73 51 -112 19 -40 34 -75 34 -78 0 -2 14 -35 31 -72 17 -38
38 -84 46 -103 30 -66 204 -415 225 -450 12 -19 26 -44 32 -55 30 -55 135
-203 166 -235 20 -19 60 -47 90 -61 84 -41 149 -69 157 -69 4 0 37 -11 73 -24
36 -13 85 -29 110 -36 81 -23 195 -60 212 -70 10 -6 26 -10 36 -10 10 0 22 -4
28 -8 5 -4 27 -14 49 -21 22 -7 54 -19 70 -26 17 -7 59 -23 95 -35 36 -12 81
-29 100 -37 19 -8 46 -20 60 -25 14 -6 33 -14 42 -19 10 -5 23 -9 28 -9 6 0
36 -16 66 -35 30 -19 58 -35 63 -35 5 0 11 -3 13 -7 3 -9 114 -83 123 -83 3 0
11 -5 18 -10 7 -6 82 -58 167 -117 85 -59 157 -109 160 -112 13 -15 80 -61 88
-61 6 0 12 -4 14 -8 4 -9 133 -102 142 -102 3 0 28 -16 55 -35 26 -19 51 -35
55 -35 3 0 28 -16 55 -35 26 -19 53 -35 59 -35 6 0 12 -3 14 -8 2 -4 21 -21
44 -37 104 -76 187 -171 182 -207 l-3 -23 -310 -7 c-170 -4 -323 -10 -340 -13
-16 -4 -66 -11 -110 -16 -107 -11 -187 -24 -265 -44 -36 -9 -81 -20 -100 -25
-102 -25 -233 -69 -246 -83 -4 -4 -17 -7 -29 -7 -11 0 -25 -4 -30 -8 -11 -8
-79 -32 -157 -53 -27 -7 -48 -17 -48 -21 0 -4 -6 -8 -14 -8 -17 0 -66 -56 -66
-76 0 -8 11 -32 25 -54 14 -22 25 -44 25 -50 0 -6 4 -18 9 -28 4 -9 21 -44 37
-77 79 -166 278 -401 439 -520 44 -32 82 -61 85 -64 14 -16 131 -101 139 -101
5 0 11 -3 13 -7 5 -13 76 -63 87 -63 6 0 11 -4 11 -10 0 -5 5 -10 11 -10 6 0
25 -11 42 -24 56 -42 156 -94 442 -231 167 -80 340 -165 395 -196 58 -32 274
-174 293 -193 7 -6 45 -35 85 -64 40 -29 80 -59 90 -66 9 -8 54 -43 99 -79 45
-36 96 -80 115 -97 45 -44 98 -84 103 -78 2 2 -6 24 -18 48 -12 25 -33 70 -46
100 -18 42 -55 87 -151 185 -69 72 -137 146 -150 165 -13 19 -27 37 -30 40 -3
3 -34 39 -70 80 -78 90 -234 246 -315 315 -32 28 -63 55 -69 60 -6 6 -42 35
-81 65 -38 30 -72 57 -75 60 -14 16 -140 100 -149 100 -6 0 -11 5 -11 10 0 6
-6 10 -14 10 -7 0 -19 6 -25 14 -7 8 -26 21 -44 30 -18 9 -50 27 -72 41 -22
14 -48 28 -57 31 -10 4 -18 10 -18 15 0 5 -5 9 -11 9 -6 0 -63 35 -127 78 -64
42 -121 79 -126 81 -40 17 -227 208 -253 260 -38 71 -43 66 102 97 39 9 87 18
108 21 20 3 40 9 43 14 3 5 20 9 39 9 19 0 36 4 39 9 3 4 20 11 38 15 18 3 58
13 88 22 63 19 132 31 240 44 104 12 292 37 370 50 36 6 81 13 100 16 19 3 44
9 55 14 11 4 49 16 85 25 36 9 74 21 85 25 19 8 49 15 110 27 75 14 73 50 -7
151 -35 43 -81 102 -103 131 -96 126 -179 214 -269 286 -27 22 -71 58 -97 80
-76 65 -140 118 -178 147 -87 66 -158 122 -187 146 -16 15 -37 32 -46 37 -9 6
-58 42 -110 81 -51 39 -163 119 -248 178 -85 58 -160 110 -167 116 -7 5 -15
10 -17 10 -3 0 -30 16 -60 35 -124 79 -174 104 -476 242 -30 14 -64 29 -75 33
-11 4 -54 24 -95 43 -41 19 -102 47 -135 62 -33 14 -68 30 -77 36 -10 5 -27 9
-37 9 -11 0 -23 4 -26 10 -3 6 -15 10 -25 10 -19 0 -76 29 -117 60 -20 15 -93
112 -93 124 0 3 -16 30 -35 60 -19 30 -35 59 -35 63 0 9 -27 65 -237 493 -83
168 -171 350 -197 405 -26 55 -62 132 -81 170 -41 87 -88 189 -108 235 -8 19
-27 62 -42 95 -87 191 -120 269 -170 395 -51 130 -56 142 -66 162 -5 10 -9 22
-9 28 0 9 -40 103 -61 142 -5 10 -9 22 -9 27 0 17 -90 200 -144 294 -28 48
-55 96 -61 105 -28 49 -81 127 -87 130 -5 2 -8 7 -8 12 0 10 -176 275 -204
307 -10 12 -24 30 -30 41 -24 40 -54 82 -146 200 -52 68 -106 138 -120 156
-146 190 -458 524 -685 731 -54 50 -103 95 -109 100 -14 13 -205 176 -226 192
-8 6 -33 27 -56 45 -107 86 -149 118 -349 259 -71 51 -131 96 -133 101 -2 4
-8 8 -14 8 -5 0 -38 20 -72 45 -35 25 -66 45 -70 45 -3 0 -28 16 -55 35 -26
19 -53 35 -59 35 -6 0 -12 3 -14 8 -4 10 -86 62 -98 62 -5 0 -10 4 -10 9 0 5
-8 11 -17 15 -10 3 -43 22 -73 41 -30 20 -64 40 -75 45 -23 11 -58 33 -65 40
-3 3 -25 15 -49 28 -24 12 -55 28 -70 36 -14 7 -37 18 -51 24 -14 5 -47 20
-73 31 -49 22 -95 38 -177 61 -185 52 -271 74 -320 84 -51 10 -116 27 -135 35
-27 13 -97 20 -315 31 -295 15 -330 20 -375 48 -52 33 -119 85 -175 138 -41
39 -211 154 -227 154 -3 0 -14 6 -22 14 -49 44 -464 244 -571 275 -25 7 -54
17 -65 21 -11 5 -29 11 -40 13 -11 3 -45 13 -75 22 -30 10 -80 22 -110 27 -80
14 -372 21 -390 8z"/>
<path d="M4110 10740 c-8 -5 -25 -10 -38 -10 -23 0 -23 -1 9 -47 33 -49 108
-140 166 -203 33 -35 48 -64 149 -277 30 -62 58 -113 64 -113 17 0 77 69 97
113 29 61 41 104 48 172 6 57 4 64 -37 145 -35 67 -57 95 -105 135 -124 102
-106 95 -228 95 -60 0 -117 -5 -125 -10z"/>
<path d="M374 2559 c-38 -4 -108 -20 -155 -35 -71 -22 -91 -33 -130 -73 -32
-33 -49 -62 -57 -94 -9 -33 -12 -286 -12 -906 l0 -861 205 0 205 0 0 833 c1
706 3 828 14 807 8 -14 161 -353 340 -754 180 -401 341 -749 357 -773 69 -100
162 -138 339 -137 94 1 126 5 174 24 74 28 134 83 173 157 17 32 176 384 354
782 l324 724 3 -831 2 -832 205 0 205 0 0 868 c0 979 4 928 -75 1001 -31 29
-64 46 -123 65 -288 91 -505 25 -610 -184 -18 -36 -172 -377 -342 -759 -248
-559 -310 -690 -318 -675 -5 11 -143 330 -307 709 -164 380 -308 712 -322 738
-79 158 -239 231 -449 206z"/>
<path d="M3282 1433 l3 -508 31 -55 c56 -99 196 -191 351 -231 134 -34 230
-39 715 -39 l478 0 0 -85 c0 -99 -14 -139 -59 -178 -74 -62 -68 -61 -823 -65
l-688 -3 0 -135 0 -135 738 3 737 3 97 27 c188 51 322 144 377 258 l26 55 3
798 2 797 -205 0 -205 0 0 -545 0 -546 -512 3 -513 3 -47 23 c-27 13 -58 38
-70 55 l-23 32 -3 488 -3 487 -205 0 -205 0 3 -507z"/>
</g>
</svg>
